# xmcd
#
# Track frame offsets: 
#        150
#        17899
#        30571
#        43163
#        63916
#        79580
#        95279
#        112453
#        139720
#        151118
#        167873
#        187938
#
# Disc length: 2674 seconds
#
# Revision: 0
# Processed by: cddbd v1.5.2PL0 Copyright (c) Steve Scherf et al.
# Submitted via: ExactAudioCopy v0.99pb4
#
DISCID=960a700c
DTITLE=Ken Tucker - Juke Joint Serenade
DYEAR=2010
DGENRE=Blues
TTITLE0=Brother Whiskey
TTITLE1=One Stop Mind
TTITLE2=Let it Slide
TTITLE3=Desperately Need
TTITLE4=Sunny
TTITLE5=Street Walking Woman
TTITLE6=Coal Shed
TTITLE7=Highway 61
TTITLE8=Eliza
TTITLE9=Island of Lost Souls
TTITLE10=Killer's Mind
TTITLE11=Worst I Ever Felt
EXTD=
EXTT0=
EXTT1=
EXTT2=
EXTT3=
EXTT4=
EXTT5=
EXTT6=
EXTT7=
EXTT8=
EXTT9=
EXTT10=
EXTT11=
PLAYORDER=
